<?xml version="1.0" standalone="no"?>
<!DOCTYPE svg PUBLIC "-//W3C//DTD SVG 20010904//EN"
 "http://www.w3.org/TR/2001/REC-SVG-20010904/DTD/svg10.dtd">
<svg version="1.0" xmlns="http://www.w3.org/2000/svg"
 width="1024.000000pt" height="1024.000000pt" viewBox="0 0 1024.000000 1024.000000"
 preserveAspectRatio="xMidYMid meet">
<metadata>
Created by potrace 1.14, written by Peter Selinger 2001-2017
</metadata>
<g transform="translate(0.000000,1024.000000) scale(0.100000,-0.100000)"
fill="#000000" stroke="none">
<path d="M6110 8389 c-117 -18 -117 -18 -454 -292 -67 -55 -990 -799 -1147
-926 l-107 -85 -1493 -2 c-822 -1 -1507 -4 -1523 -8 -156 -37 -302 -134 -383
-255 -48 -71 -69 -118 -93 -205 -19 -67 -20 -116 -19 -1255 0 -1125 1 -1190
19 -1257 19 -74 65 -173 96 -211 11 -12 30 -36 44 -53 51 -64 171 -142 266
-174 83 -27 89 -28 369 -31 149 -1 272 -3 276 -4 3 0 5 -292 6 -648 0 -569 2
-656 17 -713 19 -77 74 -193 112 -235 14 -16 31 -37 38 -45 24 -33 114 -100
171 -128 129 -65 135 -66 535 -69 395 -2 443 2 559 53 57 26 163 98 197 136
92 102 156 240 169 369 2 19 4 315 4 659 l1 625 313 0 312 -1 640 -512 c352
-282 647 -518 655 -525 116 -96 317 -250 357 -275 125 -76 232 -87 327 -34 57
32 109 100 127 165 17 63 16 5635 -1 5697 -48 177 -199 270 -390 239z m24
-3028 c0 -1436 -2 -2612 -5 -2615 -3 -3 -522 406 -673 531 -10 8 -132 105
-270 215 -138 110 -262 210 -276 222 -14 11 -78 63 -143 114 l-117 94 2 1446
3 1446 185 148 c102 81 192 154 200 161 8 6 58 46 110 87 52 41 100 79 106 85
6 5 28 24 49 40 59 46 507 404 530 423 11 9 74 60 140 112 66 52 126 101 134
108 8 8 16 10 20 4 3 -6 6 -1185 5 -2621z m-1866 1 l-3 -1347 -1398 0 c-1110
-1 -1406 2 -1441 12 -60 18 -126 84 -149 148 -16 47 -17 129 -17 1189 0 853 3
1149 12 1179 18 61 83 125 147 147 52 17 123 18 1453 18 l1398 0 -2 -1346z
m-883 -2367 l0 -640 -25 -48 c-13 -27 -41 -62 -62 -78 -72 -58 -93 -60 -449
-57 -310 3 -326 4 -364 25 -51 27 -97 77 -121 128 -17 37 -19 79 -19 675 l0
635 520 0 520 0 0 -640z"/>
<path d="M8507 7649 c-66 -10 -119 -48 -145 -101 -31 -65 -24 -117 30 -228 83
-172 107 -229 178 -430 41 -116 104 -322 115 -377 2 -10 12 -56 24 -103 28
-117 57 -269 71 -370 7 -47 14 -96 16 -110 2 -14 7 -52 10 -85 3 -33 7 -73 9
-90 7 -58 18 -309 18 -414 0 -115 -11 -380 -17 -421 -3 -14 -7 -52 -11 -85
-12 -124 -17 -156 -71 -450 -10 -55 -74 -299 -101 -385 -15 -47 -28 -89 -29
-95 -5 -17 -70 -195 -97 -265 -36 -93 -104 -246 -135 -305 -20 -39 -26 -65
-27 -115 0 -79 16 -113 72 -156 86 -66 187 -53 263 33 22 25 40 49 40 53 0 5
17 46 39 92 187 402 359 988 406 1383 3 28 8 59 10 70 2 11 7 47 10 80 3 33 8
78 10 100 23 227 24 752 1 885 -3 14 -7 59 -11 100 -3 41 -8 86 -10 100 -2 14
-6 45 -9 70 -3 25 -13 86 -21 135 -9 50 -18 103 -21 119 -3 16 -7 32 -9 35 -2
4 -6 27 -10 51 -10 72 -90 373 -135 515 -77 238 -229 601 -288 688 -40 59
-106 87 -175 76z"/>
<path d="M7490 6677 c-51 -13 -86 -42 -110 -93 -31 -63 -24 -119 28 -225 58
-121 125 -322 158 -473 4 -18 14 -73 39 -216 10 -52 19 -209 19 -315 -1 -374
-74 -698 -240 -1061 -58 -127 -12 -247 109 -288 72 -24 148 -6 197 47 61 65
212 476 255 692 47 242 59 353 59 580 0 264 -25 469 -86 705 -33 128 -33 129
-40 150 -136 381 -190 476 -285 495 -57 12 -65 12 -103 2z"/>
</g>
</svg>
